<?xml version="1.0" encoding="UTF-8" standalone="no"?>
<svg
   enable-background="new 0 0 32 32"
   id="Editable-line"
   version="1.1"
   viewBox="0 0 32 32"
   xml:space="preserve"
   xmlns="http://www.w3.org/2000/svg"
   xmlns:svg="http://www.w3.org/2000/svg"><defs
     id="defs19" /><path
     d="  M3.241,7.646L13,19v9l6-4v-5l9.759-11.354C29.315,6.996,28.848,6,27.986,6H4.014C3.152,6,2.685,6.996,3.241,7.646z"
     fill="none"
     id="XMLID_6_"
     stroke="#000000"
     stroke-linecap="round"
     stroke-linejoin="round"
     stroke-miterlimit="10"
     stroke-width="2" /><path
     style="fill:#ffffff;stroke-width:0.0431267"
     d="m 12.637407,28.911586 c -0.209096,-0.08345 -0.400291,-0.268768 -0.501465,-0.486054 l -0.102754,-0.22068 -0.0014,-4.420485 -0.0014,-4.420486 -4.6187533,-5.369272 C 4.871333,11.041509 2.6918934,8.4991914 2.5684483,8.3450135 2.276633,7.9805478 2.1661127,7.7829901 2.0895134,7.4889057 1.8190537,6.450541 2.4653345,5.3641183 3.5163326,5.090368 3.7414763,5.0317256 5.1514594,5.0242588 16,5.0242588 c 10.848541,0 12.258524,0.00747 12.483667,0.066109 1.051462,0.2738709 1.697286,1.3601468 1.426571,2.399491 -0.03454,0.1326238 -0.126727,0.3486962 -0.204851,0.4801607 -0.07813,0.1314645 -2.296223,2.7446845 -4.929107,5.8071565 l -4.787062,5.56813 -0.02156,2.49618 -0.02156,2.49618 -0.12938,0.186962 c -0.106826,0.154369 -0.655661,0.538902 -3.148248,2.205768 -1.660378,1.110343 -3.110406,2.066138 -3.222287,2.123989 -0.218422,0.112942 -0.601258,0.140019 -0.80877,0.0572 z m 3.384503,-4.09241 2.005044,-1.337158 9.49e-4,-2.339392 c 8.93e-4,-2.203828 0.0057,-2.349833 0.08276,-2.519584 0.04774,-0.10516 2.113256,-2.543411 4.960394,-5.855541 C 25.754275,9.6460597 27.96062,7.0635345 27.974042,7.0285563 27.995512,6.9726057 26.555893,6.9649596 16,6.9649596 c -10.5455482,0 -11.995497,0.00769 -11.9740886,0.063476 0.013397,0.034912 2.2196093,2.6171424 4.9026941,5.7382904 2.8603825,3.327392 4.9122995,5.749622 4.9604415,5.855661 0.07864,0.173218 0.08214,0.335966 0.08305,3.857397 5.22e-4,2.022103 0.01081,3.67655 0.02286,3.67655 0.01205,0 0.92418,-0.601721 2.026955,-1.337158 z"
     id="path205" /></svg>
