<?xml version="1.0" encoding="UTF-8" standalone="no"?>
<!-- Created with Inkscape (http://www.inkscape.org/) -->

<svg
   width="210mm"
   height="297mm"
   viewBox="0 0 210 297"
   version="1.1"
   id="svg5"
   xmlns="http://www.w3.org/2000/svg"
   xmlns:svg="http://www.w3.org/2000/svg">
  <defs
     id="defs2" />
  <g
     id="layer1">
    <path
       style="fill:#ffffff;stroke:none;stroke-width:0.264583"
       d="m 158.18078,77.982682 c 0.75805,1.274475 -10.05338,8.984299 -27.19581,20.816322 0,0 -1e-5,4e-6 -1e-5,4e-6 -7.00661,4.837892 -16.20737,11.164932 -24.63285,17.807202 -5.87556,4.65859 -12.162694,9.85808 -17.002884,15.88428 -1.747072,2.18678 -3.320574,4.42059 -4.359482,6.74106 -0.314807,0.72318 -0.594392,1.44402 -0.816644,2.15182 -0.355348,1.13165 -0.560272,2.2176 -0.538451,3.22861 -0.04538,1.54893 0.440195,3.2314 1.19619,4.81797 0.912264,1.91898 2.391328,3.74088 4.055442,5.49981 4.633015,4.86801 10.833651,8.66757 16.603269,12.02321 8.41571,4.84078 17.57918,9.1443 24.5558,12.42641 0,0 0,0 0,0 17.31004,8.13736 28.19507,13.37031 27.69236,14.69116 -0.50271,1.32085 -12.19682,-1.4848 -30.44098,-8.03971 0,0 0,0 0,0 -7.4806,-2.68447 -16.87195,-6.33396 -26.14202,-11.10756 -6.215197,-3.16212 -13.22158,-7.22861 -19.223879,-13.11707 -2.212692,-2.16236 -4.324268,-4.77743 -5.958138,-7.9237 -1.419859,-2.74206 -2.284852,-5.91336 -2.311537,-9.30832 0.03375,-2.13644 0.373624,-4.18233 0.946022,-6.10062 0.358154,-1.20029 0.804627,-2.34151 1.316768,-3.4149 1.586357,-3.38296 3.626891,-6.31262 5.764543,-8.85756 5.837221,-6.97869 12.758723,-12.47547 19.045781,-17.01941 9.21603,-6.70137 18.64951,-12.365737 26.28696,-16.702555 0,0 1e-5,-3e-6 1e-5,-3e-6 18.3041,-10.399499 30.40149,-15.770925 31.15954,-14.49645 z"
       id="path513"
       class="UnoptimicedTransforms"
       transform="matrix(-1.3353633,0,0,1,256.58261,0)" />
  </g>
</svg>
