<?xml version="1.0" encoding="UTF-8" standalone="no"?>
<!-- Created with Inkscape (http://www.inkscape.org/) -->

<svg
   width="210mm"
   height="297mm"
   viewBox="0 0 210 297"
   version="1.1"
   id="svg5"
   xmlns:xlink="http://www.w3.org/1999/xlink"
   xmlns="http://www.w3.org/2000/svg"
   xmlns:svg="http://www.w3.org/2000/svg">
  <defs
     id="defs2">
    <clipPath
       clipPathUnits="userSpaceOnUse"
       id="clipPath717">
      <path
         id="path719"
         style="fill:#ff0000;fill-opacity:1;fill-rule:nonzero;stroke:none;stroke-width:0.264583"
         d="m 70.422574,69.657246 v 52.434014 h 5.112351 c 0.2042,-0.1569 0.500226,-0.25963 0.881599,-0.26252 0.118335,-7.9e-4 0.244782,0.008 0.379304,0.0274 0.04122,0.006 0.08229,0.0116 0.123508,0.0176 0.127664,0.0186 0.244216,0.0458 0.352433,0.078 0.01582,-8e-4 0.03192,-0.002 0.04806,-0.002 0.223776,-0.004 0.47975,0.0384 0.761193,0.1416 H 128.98076 V 69.657195 Z" />
    </clipPath>
    <clipPath
       clipPathUnits="userSpaceOnUse"
       id="clipPath1117">
      <path
         id="path1119"
         style="fill:#ff0000;fill-opacity:1;fill-rule:nonzero;stroke:none;stroke-width:0.264583"
         d="m 70.429292,110.5085 v 58.6667 h 34.635098 c -0.19563,-0.31265 -0.40637,-0.6153 -0.64337,-0.89968 -0.64672,-0.83322 -1.31422,-1.64969 -1.96474,-2.47996 -0.93519,-1.1887 -1.85567,-2.38905 -2.730067,-3.62355 -0.885725,-1.22584 -1.792825,-2.43552 -2.69131,-3.65197 -0.767802,-1.05626 -1.516049,-2.12587 -2.261875,-3.19774 -0.789848,-1.12322 -1.578965,-2.24702 -2.313038,-3.40806 -0.789559,-1.19956 -1.553819,-2.41591 -2.365748,-3.60081 -0.772978,-1.17807 -1.516803,-2.37497 -2.220018,-3.59617 -0.582171,-0.94424 -1.181529,-1.87818 -1.809711,-2.79259 -0.560517,-0.83092 -1.112067,-1.66777 -1.671214,-2.49959 -0.530283,-0.84417 -1.037235,-1.70458 -1.468128,-2.60449 -0.327086,-0.69103 -0.642011,-1.38777 -0.995288,-2.06602 -0.292775,-0.58752 -0.574479,-1.18026 -0.898652,-1.75184 -0.44159,-0.73319 -0.874078,-1.47209 -1.322917,-2.20089 -0.439605,-0.68709 -0.90556,-1.35705 -1.323435,-2.05776 -0.26751,-0.42312 -0.543042,-0.8432 -0.843359,-1.24385 -0.370039,-0.48247 -0.72793,-0.97333 -1.065052,-1.4795 -0.357507,-0.52677 -0.712112,-1.05564 -1.058849,-1.58957 -0.396901,-0.61114 -0.384281,-1.14451 -0.16433,-1.4583 -0.184793,-0.53891 0.232577,-1.13707 1.163235,-1.14412 0.118335,-7.9e-4 0.244782,0.008 0.379304,0.0274 0.04122,0.006 0.08229,0.0116 0.123508,0.0176 0.127921,0.0186 0.244488,0.0458 0.352949,0.078 0.01564,-8e-4 0.03157,-0.002 0.04754,-0.002 0.242062,-0.005 0.521491,0.0456 0.830442,0.16795 0.3873,0.15345 0.789202,0.26499 1.194242,0.36019 0.570569,0.13413 0.923052,0.40343 1.089856,0.70021 0.312388,0.0226 0.624358,0.0503 0.935342,0.0899 0.687096,0.0829 1.372801,0.17998 2.046904,0.34003 1.753457,0.41631 1.455025,2.20861 -0.299207,1.79576 -0.647666,-0.15249 -1.305269,-0.24895 -1.965254,-0.32815 -0.134056,-0.0172 -0.26815,-0.032 -0.402561,-0.045 0.259189,0.297 0.49112,0.61547 0.717786,0.93845 0.406683,0.65266 0.791755,1.31802 1.211813,1.96267 0.0554,0.0764 0.108746,0.15436 0.162263,0.23202 0.106659,0.088 0.21295,0.17642 0.319879,0.26407 0.716613,0.5779 1.378966,1.21798 2.053103,1.84381 0.311526,0.2824 0.629822,0.55722 0.948264,0.832 -0.549508,-0.77802 -1.07234,-1.57692 -1.505852,-2.42621 -0.07771,-0.16798 -0.162708,-0.33287 -0.233577,-0.50385 -0.189386,-0.4569 -0.310359,-0.94056 -0.389125,-1.42782 -0.06749,-0.41751 0.131686,-0.65234 0.345715,-0.65474 0.177353,-0.002 0.36513,0.15577 0.420648,0.50178 0.07197,0.44854 0.180303,0.89394 0.357084,1.31361 0.06306,0.14971 0.138171,0.29375 0.207222,0.4408 0.442923,0.86061 0.979556,1.6688 1.540991,2.45567 0.230108,0.31469 0.487519,0.60722 0.750343,0.89452 0.313301,0.34247 0.229415,0.66761 5.29e-4,0.75086 0.151254,0.14721 0.301953,0.29516 0.453202,0.44235 1.05465,1.04933 2.096349,2.11201 3.18947,3.12177 0.606102,0.55989 0.809313,0.72913 1.412833,1.25419 0.759798,0.61433 1.509527,1.25828 2.349727,1.76268 0.375473,0.2327 0.7967,0.36789 1.19321,0.55811 1.60192,0.76844 0.808541,2.40226 -0.783931,1.61437 -0.444079,-0.21972 -0.925968,-0.36062 -1.34152,-0.63872 -0.771009,-0.47287 -1.484664,-1.03179 -2.184362,-1.60456 0.168722,0.23501 0.336348,0.47074 0.502811,0.70745 0.587865,0.82979 1.203436,1.63891 1.781286,2.47582 0.609296,0.90246 1.277734,1.76071 1.949752,2.61638 0.609761,0.80461 1.242409,1.59519 1.770435,2.45773 0.117288,0.19159 0.22452,0.38893 0.336929,0.58343 0.499329,0.94667 0.944041,1.92647 1.285192,2.94142 0.256643,0.79393 0.322072,1.6256 0.425815,2.44791 0.0024,0.0692 0.01034,0.13652 0.02016,0.20309 0.0827,0.10139 0.16663,0.20169 0.24959,0.30282 0.33387,0.40699 0.46458,0.79461 0.45372,1.11363 0.0451,0.0679 0.0923,0.13438 0.13695,0.20257 0.10046,0.11705 0.0703,0.0811 0.22944,0.26924 0.21582,0.25512 0.34796,0.50349 0.41548,0.73277 0.93727,1.46483 1.84248,2.94974 2.74867,4.43384 0.63636,1.07074 1.27253,2.14294 1.97972,3.1688 0.54929,0.77395 1.22795,1.44159 1.88102,2.12596 0.36067,0.37958 0.7271,0.7537 1.08934,1.13172 V 110.5085 Z" />
    </clipPath>
    <clipPath
       clipPathUnits="userSpaceOnUse"
       id="clipPath717-4">
      <path
         id="path719-7"
         style="fill:#ff0000;fill-opacity:1;fill-rule:nonzero;stroke:none;stroke-width:0.264583"
         d="m 70.422574,69.657246 v 52.434014 h 5.112351 c 0.2042,-0.1569 0.500226,-0.25963 0.881599,-0.26252 0.118335,-7.9e-4 0.244782,0.008 0.379304,0.0274 0.04122,0.006 0.08229,0.0116 0.123508,0.0176 0.127664,0.0186 0.244216,0.0458 0.352433,0.078 0.01582,-8e-4 0.03192,-0.002 0.04806,-0.002 0.223776,-0.004 0.47975,0.0384 0.761193,0.1416 H 128.98076 V 69.657195 Z" />
    </clipPath>
    <clipPath
       clipPathUnits="userSpaceOnUse"
       id="clipPath1117-6">
      <path
         id="path1119-9"
         style="fill:#ff0000;fill-opacity:1;fill-rule:nonzero;stroke:none;stroke-width:0.264583"
         d="m 70.429292,110.5085 v 58.6667 h 34.635098 c -0.19563,-0.31265 -0.40637,-0.6153 -0.64337,-0.89968 -0.64672,-0.83322 -1.31422,-1.64969 -1.96474,-2.47996 -0.93519,-1.1887 -1.85567,-2.38905 -2.730067,-3.62355 -0.885725,-1.22584 -1.792825,-2.43552 -2.69131,-3.65197 -0.767802,-1.05626 -1.516049,-2.12587 -2.261875,-3.19774 -0.789848,-1.12322 -1.578965,-2.24702 -2.313038,-3.40806 -0.789559,-1.19956 -1.553819,-2.41591 -2.365748,-3.60081 -0.772978,-1.17807 -1.516803,-2.37497 -2.220018,-3.59617 -0.582171,-0.94424 -1.181529,-1.87818 -1.809711,-2.79259 -0.560517,-0.83092 -1.112067,-1.66777 -1.671214,-2.49959 -0.530283,-0.84417 -1.037235,-1.70458 -1.468128,-2.60449 -0.327086,-0.69103 -0.642011,-1.38777 -0.995288,-2.06602 -0.292775,-0.58752 -0.574479,-1.18026 -0.898652,-1.75184 -0.44159,-0.73319 -0.874078,-1.47209 -1.322917,-2.20089 -0.439605,-0.68709 -0.90556,-1.35705 -1.323435,-2.05776 -0.26751,-0.42312 -0.543042,-0.8432 -0.843359,-1.24385 -0.370039,-0.48247 -0.72793,-0.97333 -1.065052,-1.4795 -0.357507,-0.52677 -0.712112,-1.05564 -1.058849,-1.58957 -0.396901,-0.61114 -0.384281,-1.14451 -0.16433,-1.4583 -0.184793,-0.53891 0.232577,-1.13707 1.163235,-1.14412 0.118335,-7.9e-4 0.244782,0.008 0.379304,0.0274 0.04122,0.006 0.08229,0.0116 0.123508,0.0176 0.127921,0.0186 0.244488,0.0458 0.352949,0.078 0.01564,-8e-4 0.03157,-0.002 0.04754,-0.002 0.242062,-0.005 0.521491,0.0456 0.830442,0.16795 0.3873,0.15345 0.789202,0.26499 1.194242,0.36019 0.570569,0.13413 0.923052,0.40343 1.089856,0.70021 0.312388,0.0226 0.624358,0.0503 0.935342,0.0899 0.687096,0.0829 1.372801,0.17998 2.046904,0.34003 1.753457,0.41631 1.455025,2.20861 -0.299207,1.79576 -0.647666,-0.15249 -1.305269,-0.24895 -1.965254,-0.32815 -0.134056,-0.0172 -0.26815,-0.032 -0.402561,-0.045 0.259189,0.297 0.49112,0.61547 0.717786,0.93845 0.406683,0.65266 0.791755,1.31802 1.211813,1.96267 0.0554,0.0764 0.108746,0.15436 0.162263,0.23202 0.106659,0.088 0.21295,0.17642 0.319879,0.26407 0.716613,0.5779 1.378966,1.21798 2.053103,1.84381 0.311526,0.2824 0.629822,0.55722 0.948264,0.832 -0.549508,-0.77802 -1.07234,-1.57692 -1.505852,-2.42621 -0.07771,-0.16798 -0.162708,-0.33287 -0.233577,-0.50385 -0.189386,-0.4569 -0.310359,-0.94056 -0.389125,-1.42782 -0.06749,-0.41751 0.131686,-0.65234 0.345715,-0.65474 0.177353,-0.002 0.36513,0.15577 0.420648,0.50178 0.07197,0.44854 0.180303,0.89394 0.357084,1.31361 0.06306,0.14971 0.138171,0.29375 0.207222,0.4408 0.442923,0.86061 0.979556,1.6688 1.540991,2.45567 0.230108,0.31469 0.487519,0.60722 0.750343,0.89452 0.313301,0.34247 0.229415,0.66761 5.29e-4,0.75086 0.151254,0.14721 0.301953,0.29516 0.453202,0.44235 1.05465,1.04933 2.096349,2.11201 3.18947,3.12177 0.606102,0.55989 0.809313,0.72913 1.412833,1.25419 0.759798,0.61433 1.509527,1.25828 2.349727,1.76268 0.375473,0.2327 0.7967,0.36789 1.19321,0.55811 1.60192,0.76844 0.808541,2.40226 -0.783931,1.61437 -0.444079,-0.21972 -0.925968,-0.36062 -1.34152,-0.63872 -0.771009,-0.47287 -1.484664,-1.03179 -2.184362,-1.60456 0.168722,0.23501 0.336348,0.47074 0.502811,0.70745 0.587865,0.82979 1.203436,1.63891 1.781286,2.47582 0.609296,0.90246 1.277734,1.76071 1.949752,2.61638 0.609761,0.80461 1.242409,1.59519 1.770435,2.45773 0.117288,0.19159 0.22452,0.38893 0.336929,0.58343 0.499329,0.94667 0.944041,1.92647 1.285192,2.94142 0.256643,0.79393 0.322072,1.6256 0.425815,2.44791 0.0024,0.0692 0.01034,0.13652 0.02016,0.20309 0.0827,0.10139 0.16663,0.20169 0.24959,0.30282 0.33387,0.40699 0.46458,0.79461 0.45372,1.11363 0.0451,0.0679 0.0923,0.13438 0.13695,0.20257 0.10046,0.11705 0.0703,0.0811 0.22944,0.26924 0.21582,0.25512 0.34796,0.50349 0.41548,0.73277 0.93727,1.46483 1.84248,2.94974 2.74867,4.43384 0.63636,1.07074 1.27253,2.14294 1.97972,3.1688 0.54929,0.77395 1.22795,1.44159 1.88102,2.12596 0.36067,0.37958 0.7271,0.7537 1.08934,1.13172 V 110.5085 Z" />
    </clipPath>
    <clipPath
       clipPathUnits="userSpaceOnUse"
       id="clipPath1649">
      <path
         id="path1647"
         style="fill:#ff0000;fill-opacity:1;fill-rule:nonzero;stroke:none;stroke-width:0.264583"
         d="m 70.422574,69.657246 v 52.434014 h 5.112351 c 0.2042,-0.1569 0.500226,-0.25963 0.881599,-0.26252 0.118335,-7.9e-4 0.244782,0.008 0.379304,0.0274 0.04122,0.006 0.08229,0.0116 0.123508,0.0176 0.127664,0.0186 0.244216,0.0458 0.352433,0.078 0.01582,-8e-4 0.03192,-0.002 0.04806,-0.002 0.223776,-0.004 0.47975,0.0384 0.761193,0.1416 H 128.98076 V 69.657195 Z" />
    </clipPath>
    <clipPath
       clipPathUnits="userSpaceOnUse"
       id="clipPath1653">
      <path
         id="path1651"
         style="fill:#ff0000;fill-opacity:1;fill-rule:nonzero;stroke:none;stroke-width:0.264583"
         d="m 70.422574,69.657246 v 52.434014 h 5.112351 c 0.2042,-0.1569 0.500226,-0.25963 0.881599,-0.26252 0.118335,-7.9e-4 0.244782,0.008 0.379304,0.0274 0.04122,0.006 0.08229,0.0116 0.123508,0.0176 0.127664,0.0186 0.244216,0.0458 0.352433,0.078 0.01582,-8e-4 0.03192,-0.002 0.04806,-0.002 0.223776,-0.004 0.47975,0.0384 0.761193,0.1416 H 128.98076 V 69.657195 Z" />
    </clipPath>
    <clipPath
       clipPathUnits="userSpaceOnUse"
       id="clipPath1657">
      <path
         id="path1655"
         style="fill:#ff0000;fill-opacity:1;fill-rule:nonzero;stroke:none;stroke-width:0.264583"
         d="m 70.429292,110.5085 v 58.6667 h 34.635098 c -0.19563,-0.31265 -0.40637,-0.6153 -0.64337,-0.89968 -0.64672,-0.83322 -1.31422,-1.64969 -1.96474,-2.47996 -0.93519,-1.1887 -1.85567,-2.38905 -2.730067,-3.62355 -0.885725,-1.22584 -1.792825,-2.43552 -2.69131,-3.65197 -0.767802,-1.05626 -1.516049,-2.12587 -2.261875,-3.19774 -0.789848,-1.12322 -1.578965,-2.24702 -2.313038,-3.40806 -0.789559,-1.19956 -1.553819,-2.41591 -2.365748,-3.60081 -0.772978,-1.17807 -1.516803,-2.37497 -2.220018,-3.59617 -0.582171,-0.94424 -1.181529,-1.87818 -1.809711,-2.79259 -0.560517,-0.83092 -1.112067,-1.66777 -1.671214,-2.49959 -0.530283,-0.84417 -1.037235,-1.70458 -1.468128,-2.60449 -0.327086,-0.69103 -0.642011,-1.38777 -0.995288,-2.06602 -0.292775,-0.58752 -0.574479,-1.18026 -0.898652,-1.75184 -0.44159,-0.73319 -0.874078,-1.47209 -1.322917,-2.20089 -0.439605,-0.68709 -0.90556,-1.35705 -1.323435,-2.05776 -0.26751,-0.42312 -0.543042,-0.8432 -0.843359,-1.24385 -0.370039,-0.48247 -0.72793,-0.97333 -1.065052,-1.4795 -0.357507,-0.52677 -0.712112,-1.05564 -1.058849,-1.58957 -0.396901,-0.61114 -0.384281,-1.14451 -0.16433,-1.4583 -0.184793,-0.53891 0.232577,-1.13707 1.163235,-1.14412 0.118335,-7.9e-4 0.244782,0.008 0.379304,0.0274 0.04122,0.006 0.08229,0.0116 0.123508,0.0176 0.127921,0.0186 0.244488,0.0458 0.352949,0.078 0.01564,-8e-4 0.03157,-0.002 0.04754,-0.002 0.242062,-0.005 0.521491,0.0456 0.830442,0.16795 0.3873,0.15345 0.789202,0.26499 1.194242,0.36019 0.570569,0.13413 0.923052,0.40343 1.089856,0.70021 0.312388,0.0226 0.624358,0.0503 0.935342,0.0899 0.687096,0.0829 1.372801,0.17998 2.046904,0.34003 1.753457,0.41631 1.455025,2.20861 -0.299207,1.79576 -0.647666,-0.15249 -1.305269,-0.24895 -1.965254,-0.32815 -0.134056,-0.0172 -0.26815,-0.032 -0.402561,-0.045 0.259189,0.297 0.49112,0.61547 0.717786,0.93845 0.406683,0.65266 0.791755,1.31802 1.211813,1.96267 0.0554,0.0764 0.108746,0.15436 0.162263,0.23202 0.106659,0.088 0.21295,0.17642 0.319879,0.26407 0.716613,0.5779 1.378966,1.21798 2.053103,1.84381 0.311526,0.2824 0.629822,0.55722 0.948264,0.832 -0.549508,-0.77802 -1.07234,-1.57692 -1.505852,-2.42621 -0.07771,-0.16798 -0.162708,-0.33287 -0.233577,-0.50385 -0.189386,-0.4569 -0.310359,-0.94056 -0.389125,-1.42782 -0.06749,-0.41751 0.131686,-0.65234 0.345715,-0.65474 0.177353,-0.002 0.36513,0.15577 0.420648,0.50178 0.07197,0.44854 0.180303,0.89394 0.357084,1.31361 0.06306,0.14971 0.138171,0.29375 0.207222,0.4408 0.442923,0.86061 0.979556,1.6688 1.540991,2.45567 0.230108,0.31469 0.487519,0.60722 0.750343,0.89452 0.313301,0.34247 0.229415,0.66761 5.29e-4,0.75086 0.151254,0.14721 0.301953,0.29516 0.453202,0.44235 1.05465,1.04933 2.096349,2.11201 3.18947,3.12177 0.606102,0.55989 0.809313,0.72913 1.412833,1.25419 0.759798,0.61433 1.509527,1.25828 2.349727,1.76268 0.375473,0.2327 0.7967,0.36789 1.19321,0.55811 1.60192,0.76844 0.808541,2.40226 -0.783931,1.61437 -0.444079,-0.21972 -0.925968,-0.36062 -1.34152,-0.63872 -0.771009,-0.47287 -1.484664,-1.03179 -2.184362,-1.60456 0.168722,0.23501 0.336348,0.47074 0.502811,0.70745 0.587865,0.82979 1.203436,1.63891 1.781286,2.47582 0.609296,0.90246 1.277734,1.76071 1.949752,2.61638 0.609761,0.80461 1.242409,1.59519 1.770435,2.45773 0.117288,0.19159 0.22452,0.38893 0.336929,0.58343 0.499329,0.94667 0.944041,1.92647 1.285192,2.94142 0.256643,0.79393 0.322072,1.6256 0.425815,2.44791 0.0024,0.0692 0.01034,0.13652 0.02016,0.20309 0.0827,0.10139 0.16663,0.20169 0.24959,0.30282 0.33387,0.40699 0.46458,0.79461 0.45372,1.11363 0.0451,0.0679 0.0923,0.13438 0.13695,0.20257 0.10046,0.11705 0.0703,0.0811 0.22944,0.26924 0.21582,0.25512 0.34796,0.50349 0.41548,0.73277 0.93727,1.46483 1.84248,2.94974 2.74867,4.43384 0.63636,1.07074 1.27253,2.14294 1.97972,3.1688 0.54929,0.77395 1.22795,1.44159 1.88102,2.12596 0.36067,0.37958 0.7271,0.7537 1.08934,1.13172 V 110.5085 Z" />
    </clipPath>
    <clipPath
       clipPathUnits="userSpaceOnUse"
       id="clipPath1661">
      <path
         id="path1659"
         style="fill:#ff0000;fill-opacity:1;fill-rule:nonzero;stroke:none;stroke-width:0.264583"
         d="m 70.429292,110.5085 v 58.6667 h 34.635098 c -0.19563,-0.31265 -0.40637,-0.6153 -0.64337,-0.89968 -0.64672,-0.83322 -1.31422,-1.64969 -1.96474,-2.47996 -0.93519,-1.1887 -1.85567,-2.38905 -2.730067,-3.62355 -0.885725,-1.22584 -1.792825,-2.43552 -2.69131,-3.65197 -0.767802,-1.05626 -1.516049,-2.12587 -2.261875,-3.19774 -0.789848,-1.12322 -1.578965,-2.24702 -2.313038,-3.40806 -0.789559,-1.19956 -1.553819,-2.41591 -2.365748,-3.60081 -0.772978,-1.17807 -1.516803,-2.37497 -2.220018,-3.59617 -0.582171,-0.94424 -1.181529,-1.87818 -1.809711,-2.79259 -0.560517,-0.83092 -1.112067,-1.66777 -1.671214,-2.49959 -0.530283,-0.84417 -1.037235,-1.70458 -1.468128,-2.60449 -0.327086,-0.69103 -0.642011,-1.38777 -0.995288,-2.06602 -0.292775,-0.58752 -0.574479,-1.18026 -0.898652,-1.75184 -0.44159,-0.73319 -0.874078,-1.47209 -1.322917,-2.20089 -0.439605,-0.68709 -0.90556,-1.35705 -1.323435,-2.05776 -0.26751,-0.42312 -0.543042,-0.8432 -0.843359,-1.24385 -0.370039,-0.48247 -0.72793,-0.97333 -1.065052,-1.4795 -0.357507,-0.52677 -0.712112,-1.05564 -1.058849,-1.58957 -0.396901,-0.61114 -0.384281,-1.14451 -0.16433,-1.4583 -0.184793,-0.53891 0.232577,-1.13707 1.163235,-1.14412 0.118335,-7.9e-4 0.244782,0.008 0.379304,0.0274 0.04122,0.006 0.08229,0.0116 0.123508,0.0176 0.127921,0.0186 0.244488,0.0458 0.352949,0.078 0.01564,-8e-4 0.03157,-0.002 0.04754,-0.002 0.242062,-0.005 0.521491,0.0456 0.830442,0.16795 0.3873,0.15345 0.789202,0.26499 1.194242,0.36019 0.570569,0.13413 0.923052,0.40343 1.089856,0.70021 0.312388,0.0226 0.624358,0.0503 0.935342,0.0899 0.687096,0.0829 1.372801,0.17998 2.046904,0.34003 1.753457,0.41631 1.455025,2.20861 -0.299207,1.79576 -0.647666,-0.15249 -1.305269,-0.24895 -1.965254,-0.32815 -0.134056,-0.0172 -0.26815,-0.032 -0.402561,-0.045 0.259189,0.297 0.49112,0.61547 0.717786,0.93845 0.406683,0.65266 0.791755,1.31802 1.211813,1.96267 0.0554,0.0764 0.108746,0.15436 0.162263,0.23202 0.106659,0.088 0.21295,0.17642 0.319879,0.26407 0.716613,0.5779 1.378966,1.21798 2.053103,1.84381 0.311526,0.2824 0.629822,0.55722 0.948264,0.832 -0.549508,-0.77802 -1.07234,-1.57692 -1.505852,-2.42621 -0.07771,-0.16798 -0.162708,-0.33287 -0.233577,-0.50385 -0.189386,-0.4569 -0.310359,-0.94056 -0.389125,-1.42782 -0.06749,-0.41751 0.131686,-0.65234 0.345715,-0.65474 0.177353,-0.002 0.36513,0.15577 0.420648,0.50178 0.07197,0.44854 0.180303,0.89394 0.357084,1.31361 0.06306,0.14971 0.138171,0.29375 0.207222,0.4408 0.442923,0.86061 0.979556,1.6688 1.540991,2.45567 0.230108,0.31469 0.487519,0.60722 0.750343,0.89452 0.313301,0.34247 0.229415,0.66761 5.29e-4,0.75086 0.151254,0.14721 0.301953,0.29516 0.453202,0.44235 1.05465,1.04933 2.096349,2.11201 3.18947,3.12177 0.606102,0.55989 0.809313,0.72913 1.412833,1.25419 0.759798,0.61433 1.509527,1.25828 2.349727,1.76268 0.375473,0.2327 0.7967,0.36789 1.19321,0.55811 1.60192,0.76844 0.808541,2.40226 -0.783931,1.61437 -0.444079,-0.21972 -0.925968,-0.36062 -1.34152,-0.63872 -0.771009,-0.47287 -1.484664,-1.03179 -2.184362,-1.60456 0.168722,0.23501 0.336348,0.47074 0.502811,0.70745 0.587865,0.82979 1.203436,1.63891 1.781286,2.47582 0.609296,0.90246 1.277734,1.76071 1.949752,2.61638 0.609761,0.80461 1.242409,1.59519 1.770435,2.45773 0.117288,0.19159 0.22452,0.38893 0.336929,0.58343 0.499329,0.94667 0.944041,1.92647 1.285192,2.94142 0.256643,0.79393 0.322072,1.6256 0.425815,2.44791 0.0024,0.0692 0.01034,0.13652 0.02016,0.20309 0.0827,0.10139 0.16663,0.20169 0.24959,0.30282 0.33387,0.40699 0.46458,0.79461 0.45372,1.11363 0.0451,0.0679 0.0923,0.13438 0.13695,0.20257 0.10046,0.11705 0.0703,0.0811 0.22944,0.26924 0.21582,0.25512 0.34796,0.50349 0.41548,0.73277 0.93727,1.46483 1.84248,2.94974 2.74867,4.43384 0.63636,1.07074 1.27253,2.14294 1.97972,3.1688 0.54929,0.77395 1.22795,1.44159 1.88102,2.12596 0.36067,0.37958 0.7271,0.7537 1.08934,1.13172 V 110.5085 Z" />
    </clipPath>
    <clipPath
       clipPathUnits="userSpaceOnUse"
       id="clipPath717-6">
      <path
         id="path719-6"
         style="fill:#ff0000;fill-opacity:1;fill-rule:nonzero;stroke:none;stroke-width:0.264583"
         d="m 70.422574,69.657246 v 52.434014 h 5.112351 c 0.2042,-0.1569 0.500226,-0.25963 0.881599,-0.26252 0.118335,-7.9e-4 0.244782,0.008 0.379304,0.0274 0.04122,0.006 0.08229,0.0116 0.123508,0.0176 0.127664,0.0186 0.244216,0.0458 0.352433,0.078 0.01582,-8e-4 0.03192,-0.002 0.04806,-0.002 0.223776,-0.004 0.47975,0.0384 0.761193,0.1416 H 128.98076 V 69.657195 Z" />
    </clipPath>
    <clipPath
       clipPathUnits="userSpaceOnUse"
       id="clipPath1117-0">
      <path
         id="path1119-7"
         style="fill:#ff0000;fill-opacity:1;fill-rule:nonzero;stroke:none;stroke-width:0.264583"
         d="m 70.429292,110.5085 v 58.6667 h 34.635098 c -0.19563,-0.31265 -0.40637,-0.6153 -0.64337,-0.89968 -0.64672,-0.83322 -1.31422,-1.64969 -1.96474,-2.47996 -0.93519,-1.1887 -1.85567,-2.38905 -2.730067,-3.62355 -0.885725,-1.22584 -1.792825,-2.43552 -2.69131,-3.65197 -0.767802,-1.05626 -1.516049,-2.12587 -2.261875,-3.19774 -0.789848,-1.12322 -1.578965,-2.24702 -2.313038,-3.40806 -0.789559,-1.19956 -1.553819,-2.41591 -2.365748,-3.60081 -0.772978,-1.17807 -1.516803,-2.37497 -2.220018,-3.59617 -0.582171,-0.94424 -1.181529,-1.87818 -1.809711,-2.79259 -0.560517,-0.83092 -1.112067,-1.66777 -1.671214,-2.49959 -0.530283,-0.84417 -1.037235,-1.70458 -1.468128,-2.60449 -0.327086,-0.69103 -0.642011,-1.38777 -0.995288,-2.06602 -0.292775,-0.58752 -0.574479,-1.18026 -0.898652,-1.75184 -0.44159,-0.73319 -0.874078,-1.47209 -1.322917,-2.20089 -0.439605,-0.68709 -0.90556,-1.35705 -1.323435,-2.05776 -0.26751,-0.42312 -0.543042,-0.8432 -0.843359,-1.24385 -0.370039,-0.48247 -0.72793,-0.97333 -1.065052,-1.4795 -0.357507,-0.52677 -0.712112,-1.05564 -1.058849,-1.58957 -0.396901,-0.61114 -0.384281,-1.14451 -0.16433,-1.4583 -0.184793,-0.53891 0.232577,-1.13707 1.163235,-1.14412 0.118335,-7.9e-4 0.244782,0.008 0.379304,0.0274 0.04122,0.006 0.08229,0.0116 0.123508,0.0176 0.127921,0.0186 0.244488,0.0458 0.352949,0.078 0.01564,-8e-4 0.03157,-0.002 0.04754,-0.002 0.242062,-0.005 0.521491,0.0456 0.830442,0.16795 0.3873,0.15345 0.789202,0.26499 1.194242,0.36019 0.570569,0.13413 0.923052,0.40343 1.089856,0.70021 0.312388,0.0226 0.624358,0.0503 0.935342,0.0899 0.687096,0.0829 1.372801,0.17998 2.046904,0.34003 1.753457,0.41631 1.455025,2.20861 -0.299207,1.79576 -0.647666,-0.15249 -1.305269,-0.24895 -1.965254,-0.32815 -0.134056,-0.0172 -0.26815,-0.032 -0.402561,-0.045 0.259189,0.297 0.49112,0.61547 0.717786,0.93845 0.406683,0.65266 0.791755,1.31802 1.211813,1.96267 0.0554,0.0764 0.108746,0.15436 0.162263,0.23202 0.106659,0.088 0.21295,0.17642 0.319879,0.26407 0.716613,0.5779 1.378966,1.21798 2.053103,1.84381 0.311526,0.2824 0.629822,0.55722 0.948264,0.832 -0.549508,-0.77802 -1.07234,-1.57692 -1.505852,-2.42621 -0.07771,-0.16798 -0.162708,-0.33287 -0.233577,-0.50385 -0.189386,-0.4569 -0.310359,-0.94056 -0.389125,-1.42782 -0.06749,-0.41751 0.131686,-0.65234 0.345715,-0.65474 0.177353,-0.002 0.36513,0.15577 0.420648,0.50178 0.07197,0.44854 0.180303,0.89394 0.357084,1.31361 0.06306,0.14971 0.138171,0.29375 0.207222,0.4408 0.442923,0.86061 0.979556,1.6688 1.540991,2.45567 0.230108,0.31469 0.487519,0.60722 0.750343,0.89452 0.313301,0.34247 0.229415,0.66761 5.29e-4,0.75086 0.151254,0.14721 0.301953,0.29516 0.453202,0.44235 1.05465,1.04933 2.096349,2.11201 3.18947,3.12177 0.606102,0.55989 0.809313,0.72913 1.412833,1.25419 0.759798,0.61433 1.509527,1.25828 2.349727,1.76268 0.375473,0.2327 0.7967,0.36789 1.19321,0.55811 1.60192,0.76844 0.808541,2.40226 -0.783931,1.61437 -0.444079,-0.21972 -0.925968,-0.36062 -1.34152,-0.63872 -0.771009,-0.47287 -1.484664,-1.03179 -2.184362,-1.60456 0.168722,0.23501 0.336348,0.47074 0.502811,0.70745 0.587865,0.82979 1.203436,1.63891 1.781286,2.47582 0.609296,0.90246 1.277734,1.76071 1.949752,2.61638 0.609761,0.80461 1.242409,1.59519 1.770435,2.45773 0.117288,0.19159 0.22452,0.38893 0.336929,0.58343 0.499329,0.94667 0.944041,1.92647 1.285192,2.94142 0.256643,0.79393 0.322072,1.6256 0.425815,2.44791 0.0024,0.0692 0.01034,0.13652 0.02016,0.20309 0.0827,0.10139 0.16663,0.20169 0.24959,0.30282 0.33387,0.40699 0.46458,0.79461 0.45372,1.11363 0.0451,0.0679 0.0923,0.13438 0.13695,0.20257 0.10046,0.11705 0.0703,0.0811 0.22944,0.26924 0.21582,0.25512 0.34796,0.50349 0.41548,0.73277 0.93727,1.46483 1.84248,2.94974 2.74867,4.43384 0.63636,1.07074 1.27253,2.14294 1.97972,3.1688 0.54929,0.77395 1.22795,1.44159 1.88102,2.12596 0.36067,0.37958 0.7271,0.7537 1.08934,1.13172 V 110.5085 Z" />
    </clipPath>
    <clipPath
       clipPathUnits="userSpaceOnUse"
       id="clipPath1649-2">
      <path
         id="path1647-5"
         style="fill:#ff0000;fill-opacity:1;fill-rule:nonzero;stroke:none;stroke-width:0.264583"
         d="m 70.422574,69.657246 v 52.434014 h 5.112351 c 0.2042,-0.1569 0.500226,-0.25963 0.881599,-0.26252 0.118335,-7.9e-4 0.244782,0.008 0.379304,0.0274 0.04122,0.006 0.08229,0.0116 0.123508,0.0176 0.127664,0.0186 0.244216,0.0458 0.352433,0.078 0.01582,-8e-4 0.03192,-0.002 0.04806,-0.002 0.223776,-0.004 0.47975,0.0384 0.761193,0.1416 H 128.98076 V 69.657195 Z" />
    </clipPath>
    <clipPath
       clipPathUnits="userSpaceOnUse"
       id="clipPath1653-8">
      <path
         id="path1651-2"
         style="fill:#ff0000;fill-opacity:1;fill-rule:nonzero;stroke:none;stroke-width:0.264583"
         d="m 70.422574,69.657246 v 52.434014 h 5.112351 c 0.2042,-0.1569 0.500226,-0.25963 0.881599,-0.26252 0.118335,-7.9e-4 0.244782,0.008 0.379304,0.0274 0.04122,0.006 0.08229,0.0116 0.123508,0.0176 0.127664,0.0186 0.244216,0.0458 0.352433,0.078 0.01582,-8e-4 0.03192,-0.002 0.04806,-0.002 0.223776,-0.004 0.47975,0.0384 0.761193,0.1416 H 128.98076 V 69.657195 Z" />
    </clipPath>
    <clipPath
       clipPathUnits="userSpaceOnUse"
       id="clipPath1657-8">
      <path
         id="path1655-8"
         style="fill:#ff0000;fill-opacity:1;fill-rule:nonzero;stroke:none;stroke-width:0.264583"
         d="m 70.429292,110.5085 v 58.6667 h 34.635098 c -0.19563,-0.31265 -0.40637,-0.6153 -0.64337,-0.89968 -0.64672,-0.83322 -1.31422,-1.64969 -1.96474,-2.47996 -0.93519,-1.1887 -1.85567,-2.38905 -2.730067,-3.62355 -0.885725,-1.22584 -1.792825,-2.43552 -2.69131,-3.65197 -0.767802,-1.05626 -1.516049,-2.12587 -2.261875,-3.19774 -0.789848,-1.12322 -1.578965,-2.24702 -2.313038,-3.40806 -0.789559,-1.19956 -1.553819,-2.41591 -2.365748,-3.60081 -0.772978,-1.17807 -1.516803,-2.37497 -2.220018,-3.59617 -0.582171,-0.94424 -1.181529,-1.87818 -1.809711,-2.79259 -0.560517,-0.83092 -1.112067,-1.66777 -1.671214,-2.49959 -0.530283,-0.84417 -1.037235,-1.70458 -1.468128,-2.60449 -0.327086,-0.69103 -0.642011,-1.38777 -0.995288,-2.06602 -0.292775,-0.58752 -0.574479,-1.18026 -0.898652,-1.75184 -0.44159,-0.73319 -0.874078,-1.47209 -1.322917,-2.20089 -0.439605,-0.68709 -0.90556,-1.35705 -1.323435,-2.05776 -0.26751,-0.42312 -0.543042,-0.8432 -0.843359,-1.24385 -0.370039,-0.48247 -0.72793,-0.97333 -1.065052,-1.4795 -0.357507,-0.52677 -0.712112,-1.05564 -1.058849,-1.58957 -0.396901,-0.61114 -0.384281,-1.14451 -0.16433,-1.4583 -0.184793,-0.53891 0.232577,-1.13707 1.163235,-1.14412 0.118335,-7.9e-4 0.244782,0.008 0.379304,0.0274 0.04122,0.006 0.08229,0.0116 0.123508,0.0176 0.127921,0.0186 0.244488,0.0458 0.352949,0.078 0.01564,-8e-4 0.03157,-0.002 0.04754,-0.002 0.242062,-0.005 0.521491,0.0456 0.830442,0.16795 0.3873,0.15345 0.789202,0.26499 1.194242,0.36019 0.570569,0.13413 0.923052,0.40343 1.089856,0.70021 0.312388,0.0226 0.624358,0.0503 0.935342,0.0899 0.687096,0.0829 1.372801,0.17998 2.046904,0.34003 1.753457,0.41631 1.455025,2.20861 -0.299207,1.79576 -0.647666,-0.15249 -1.305269,-0.24895 -1.965254,-0.32815 -0.134056,-0.0172 -0.26815,-0.032 -0.402561,-0.045 0.259189,0.297 0.49112,0.61547 0.717786,0.93845 0.406683,0.65266 0.791755,1.31802 1.211813,1.96267 0.0554,0.0764 0.108746,0.15436 0.162263,0.23202 0.106659,0.088 0.21295,0.17642 0.319879,0.26407 0.716613,0.5779 1.378966,1.21798 2.053103,1.84381 0.311526,0.2824 0.629822,0.55722 0.948264,0.832 -0.549508,-0.77802 -1.07234,-1.57692 -1.505852,-2.42621 -0.07771,-0.16798 -0.162708,-0.33287 -0.233577,-0.50385 -0.189386,-0.4569 -0.310359,-0.94056 -0.389125,-1.42782 -0.06749,-0.41751 0.131686,-0.65234 0.345715,-0.65474 0.177353,-0.002 0.36513,0.15577 0.420648,0.50178 0.07197,0.44854 0.180303,0.89394 0.357084,1.31361 0.06306,0.14971 0.138171,0.29375 0.207222,0.4408 0.442923,0.86061 0.979556,1.6688 1.540991,2.45567 0.230108,0.31469 0.487519,0.60722 0.750343,0.89452 0.313301,0.34247 0.229415,0.66761 5.29e-4,0.75086 0.151254,0.14721 0.301953,0.29516 0.453202,0.44235 1.05465,1.04933 2.096349,2.11201 3.18947,3.12177 0.606102,0.55989 0.809313,0.72913 1.412833,1.25419 0.759798,0.61433 1.509527,1.25828 2.349727,1.76268 0.375473,0.2327 0.7967,0.36789 1.19321,0.55811 1.60192,0.76844 0.808541,2.40226 -0.783931,1.61437 -0.444079,-0.21972 -0.925968,-0.36062 -1.34152,-0.63872 -0.771009,-0.47287 -1.484664,-1.03179 -2.184362,-1.60456 0.168722,0.23501 0.336348,0.47074 0.502811,0.70745 0.587865,0.82979 1.203436,1.63891 1.781286,2.47582 0.609296,0.90246 1.277734,1.76071 1.949752,2.61638 0.609761,0.80461 1.242409,1.59519 1.770435,2.45773 0.117288,0.19159 0.22452,0.38893 0.336929,0.58343 0.499329,0.94667 0.944041,1.92647 1.285192,2.94142 0.256643,0.79393 0.322072,1.6256 0.425815,2.44791 0.0024,0.0692 0.01034,0.13652 0.02016,0.20309 0.0827,0.10139 0.16663,0.20169 0.24959,0.30282 0.33387,0.40699 0.46458,0.79461 0.45372,1.11363 0.0451,0.0679 0.0923,0.13438 0.13695,0.20257 0.10046,0.11705 0.0703,0.0811 0.22944,0.26924 0.21582,0.25512 0.34796,0.50349 0.41548,0.73277 0.93727,1.46483 1.84248,2.94974 2.74867,4.43384 0.63636,1.07074 1.27253,2.14294 1.97972,3.1688 0.54929,0.77395 1.22795,1.44159 1.88102,2.12596 0.36067,0.37958 0.7271,0.7537 1.08934,1.13172 V 110.5085 Z" />
    </clipPath>
    <clipPath
       clipPathUnits="userSpaceOnUse"
       id="clipPath1661-2">
      <path
         id="path1659-9"
         style="fill:#ff0000;fill-opacity:1;fill-rule:nonzero;stroke:none;stroke-width:0.264583"
         d="m 70.429292,110.5085 v 58.6667 h 34.635098 c -0.19563,-0.31265 -0.40637,-0.6153 -0.64337,-0.89968 -0.64672,-0.83322 -1.31422,-1.64969 -1.96474,-2.47996 -0.93519,-1.1887 -1.85567,-2.38905 -2.730067,-3.62355 -0.885725,-1.22584 -1.792825,-2.43552 -2.69131,-3.65197 -0.767802,-1.05626 -1.516049,-2.12587 -2.261875,-3.19774 -0.789848,-1.12322 -1.578965,-2.24702 -2.313038,-3.40806 -0.789559,-1.19956 -1.553819,-2.41591 -2.365748,-3.60081 -0.772978,-1.17807 -1.516803,-2.37497 -2.220018,-3.59617 -0.582171,-0.94424 -1.181529,-1.87818 -1.809711,-2.79259 -0.560517,-0.83092 -1.112067,-1.66777 -1.671214,-2.49959 -0.530283,-0.84417 -1.037235,-1.70458 -1.468128,-2.60449 -0.327086,-0.69103 -0.642011,-1.38777 -0.995288,-2.06602 -0.292775,-0.58752 -0.574479,-1.18026 -0.898652,-1.75184 -0.44159,-0.73319 -0.874078,-1.47209 -1.322917,-2.20089 -0.439605,-0.68709 -0.90556,-1.35705 -1.323435,-2.05776 -0.26751,-0.42312 -0.543042,-0.8432 -0.843359,-1.24385 -0.370039,-0.48247 -0.72793,-0.97333 -1.065052,-1.4795 -0.357507,-0.52677 -0.712112,-1.05564 -1.058849,-1.58957 -0.396901,-0.61114 -0.384281,-1.14451 -0.16433,-1.4583 -0.184793,-0.53891 0.232577,-1.13707 1.163235,-1.14412 0.118335,-7.9e-4 0.244782,0.008 0.379304,0.0274 0.04122,0.006 0.08229,0.0116 0.123508,0.0176 0.127921,0.0186 0.244488,0.0458 0.352949,0.078 0.01564,-8e-4 0.03157,-0.002 0.04754,-0.002 0.242062,-0.005 0.521491,0.0456 0.830442,0.16795 0.3873,0.15345 0.789202,0.26499 1.194242,0.36019 0.570569,0.13413 0.923052,0.40343 1.089856,0.70021 0.312388,0.0226 0.624358,0.0503 0.935342,0.0899 0.687096,0.0829 1.372801,0.17998 2.046904,0.34003 1.753457,0.41631 1.455025,2.20861 -0.299207,1.79576 -0.647666,-0.15249 -1.305269,-0.24895 -1.965254,-0.32815 -0.134056,-0.0172 -0.26815,-0.032 -0.402561,-0.045 0.259189,0.297 0.49112,0.61547 0.717786,0.93845 0.406683,0.65266 0.791755,1.31802 1.211813,1.96267 0.0554,0.0764 0.108746,0.15436 0.162263,0.23202 0.106659,0.088 0.21295,0.17642 0.319879,0.26407 0.716613,0.5779 1.378966,1.21798 2.053103,1.84381 0.311526,0.2824 0.629822,0.55722 0.948264,0.832 -0.549508,-0.77802 -1.07234,-1.57692 -1.505852,-2.42621 -0.07771,-0.16798 -0.162708,-0.33287 -0.233577,-0.50385 -0.189386,-0.4569 -0.310359,-0.94056 -0.389125,-1.42782 -0.06749,-0.41751 0.131686,-0.65234 0.345715,-0.65474 0.177353,-0.002 0.36513,0.15577 0.420648,0.50178 0.07197,0.44854 0.180303,0.89394 0.357084,1.31361 0.06306,0.14971 0.138171,0.29375 0.207222,0.4408 0.442923,0.86061 0.979556,1.6688 1.540991,2.45567 0.230108,0.31469 0.487519,0.60722 0.750343,0.89452 0.313301,0.34247 0.229415,0.66761 5.29e-4,0.75086 0.151254,0.14721 0.301953,0.29516 0.453202,0.44235 1.05465,1.04933 2.096349,2.11201 3.18947,3.12177 0.606102,0.55989 0.809313,0.72913 1.412833,1.25419 0.759798,0.61433 1.509527,1.25828 2.349727,1.76268 0.375473,0.2327 0.7967,0.36789 1.19321,0.55811 1.60192,0.76844 0.808541,2.40226 -0.783931,1.61437 -0.444079,-0.21972 -0.925968,-0.36062 -1.34152,-0.63872 -0.771009,-0.47287 -1.484664,-1.03179 -2.184362,-1.60456 0.168722,0.23501 0.336348,0.47074 0.502811,0.70745 0.587865,0.82979 1.203436,1.63891 1.781286,2.47582 0.609296,0.90246 1.277734,1.76071 1.949752,2.61638 0.609761,0.80461 1.242409,1.59519 1.770435,2.45773 0.117288,0.19159 0.22452,0.38893 0.336929,0.58343 0.499329,0.94667 0.944041,1.92647 1.285192,2.94142 0.256643,0.79393 0.322072,1.6256 0.425815,2.44791 0.0024,0.0692 0.01034,0.13652 0.02016,0.20309 0.0827,0.10139 0.16663,0.20169 0.24959,0.30282 0.33387,0.40699 0.46458,0.79461 0.45372,1.11363 0.0451,0.0679 0.0923,0.13438 0.13695,0.20257 0.10046,0.11705 0.0703,0.0811 0.22944,0.26924 0.21582,0.25512 0.34796,0.50349 0.41548,0.73277 0.93727,1.46483 1.84248,2.94974 2.74867,4.43384 0.63636,1.07074 1.27253,2.14294 1.97972,3.1688 0.54929,0.77395 1.22795,1.44159 1.88102,2.12596 0.36067,0.37958 0.7271,0.7537 1.08934,1.13172 V 110.5085 Z" />
    </clipPath>
  </defs>
  <g
     id="layer1">
    <path
       id="rect171"
       style="fill:#ffffff;stroke-width:0.264583"
       d="m 79.018949,69.657247 c -4.762285,0 -8.596374,3.834089 -8.596374,8.596374 V 113.4954 c 0,4.76228 3.834089,8.59586 8.596374,8.59586 h 41.365431 c 4.76229,0 8.59638,-3.83358 8.59638,-8.59586 V 78.253621 c 0,-4.762285 -3.83409,-8.596374 -8.59638,-8.596374 z"
       clip-path="url(#clipPath717-4)"
       transform="matrix(-1,0,0,1,223.67414,28.55092)" />
    <path
       id="path233"
       style="fill:#ffffff;stroke-width:0.264583"
       d="m 70.429293,110.5085 c 0.338832,19.41048 0.677353,38.821 7.139616,48.59858 6.462256,9.77758 19.047811,9.92291 31.632691,10.06812 L 91.161877,141.87971 c -0.117284,-0.0277 -0.246482,-0.1071 -0.369486,-0.25373 -0.285444,-0.34027 -0.580749,-0.6732 -0.843876,-1.03146 -0.445875,-0.57887 -0.889889,-1.15925 -1.314649,-1.7539 -0.421174,-0.57678 -0.814968,-1.17438 -1.264522,-1.72961 -0.52081,-0.62659 -1.053275,-1.24406 -1.620056,-1.82986 -0.187021,-0.19947 -0.374764,-0.40375 -0.569991,-0.59531 -0.412509,-0.40475 -0.852244,-0.78113 -1.26814,-1.18236 -0.503627,-0.47265 -1.018961,-0.93288 -1.491898,-1.43712 -0.144152,-0.14202 -0.285301,-0.28664 -0.425814,-0.43202 0.02591,0.034 0.05187,0.068 0.07803,0.10181 0.05423,0.0699 0.108551,0.1399 0.162781,0.2098 0.474029,0.61106 -0.142988,1.08957 -0.617017,0.47853 -0.05441,-0.0701 -0.108887,-0.14023 -0.163297,-0.21033 -0.304249,-0.39339 -0.593635,-0.79722 -0.879533,-1.20406 -0.184649,-0.31339 -0.371977,-0.62538 -0.543636,-0.94619 -0.162905,-0.3221 -0.307551,-0.65536 -0.51108,-0.95498 -0.325005,-0.42342 -0.640609,-0.8527 -0.914156,-1.31207 -0.325584,-0.48496 -0.628647,-0.98256 -0.937411,-1.47795 -0.319629,-0.42173 -0.681565,-0.81395 -0.945162,-1.27589 -0.229288,-0.39761 -0.433824,-0.80768 -0.593245,-1.23816 -0.194869,-0.22295 -0.390335,-0.44566 -0.609782,-0.64441 -0.293361,-0.26569 -0.318064,-0.55412 -0.19327,-0.70538 0.03438,-0.179 0.234386,-0.33726 0.593763,-0.3173 0.161424,0.009 0.07697,0.004 0.253731,0.0124 0.313408,0.0102 0.625149,-0.008 0.937927,-0.0284 0.220048,-0.011 0.440259,-0.0169 0.660425,-0.0181 0.06254,-0.0276 0.136848,-0.0451 0.224792,-0.046 0.02097,-2.1e-4 0.04277,3.2e-4 0.06511,0.002 z m 7.140132,12.37857 c -0.139331,0.003 -0.27877,0.007 -0.418062,0.0145 -0.1467,0.0105 -0.293222,0.0184 -0.439766,0.0243 0.289682,0.25631 0.569829,0.52335 0.855245,0.78445 0.417555,0.39608 0.86528,0.76154 1.32705,1.10484 0.110975,0.09 0.224946,0.17561 0.340548,0.2589 -0.02712,-0.35454 0.150417,-0.55691 0.346232,-0.56172 0.0387,-9.5e-4 0.07781,0.006 0.116272,0.0202 l -0.942578,-1.42627 c -0.06008,0.008 -0.126723,0.0108 -0.199471,0.006 -0.169817,-0.0118 -0.339525,-0.0204 -0.50953,-0.0284 -0.233438,-0.0116 -0.388556,-0.0923 -0.47594,-0.19637 z m 2.437578,2.11409 c 4.13e-4,0.002 0.0011,0.004 0.0016,0.007 0.03866,0.21876 0.07841,0.43704 0.119889,0.65526 0.02539,0.0159 0.05057,0.0321 0.07596,0.0481 0.175458,0.10658 0.341122,0.22632 0.503845,0.35036 z m 0.473356,1.87223 c 0.01071,0.0255 0.02268,0.0505 0.03359,0.076 0.268162,0.24589 0.532984,0.49557 0.805118,0.7369 0.346699,0.26827 0.684184,0.54645 1.013892,0.83458 l -0.344165,-0.5209 c -0.396527,-0.29034 -0.793541,-0.58014 -1.185974,-0.87592 -0.108616,-0.0821 -0.215444,-0.16635 -0.322461,-0.25063 z m -0.820105,0.3576 c 0.171056,0.29454 0.344553,0.58775 0.523999,0.87747 -0.0167,-0.0341 -0.03342,-0.0682 -0.05013,-0.10232 -0.09068,-0.19657 -0.182124,-0.39401 -0.270785,-0.59273 -0.06737,-0.0612 -0.135021,-0.12202 -0.203088,-0.18242 z m 1.371492,1.22267 c -0.08724,0.22464 -0.351047,0.28586 -0.576192,0.0827 0.173873,0.27398 0.348946,0.54699 0.544153,0.80667 0.305853,0.36392 0.640985,0.70152 0.945162,1.06712 0.313595,0.39185 0.665659,0.74802 1.022677,1.09967 0.468485,0.49977 0.978855,0.95542 1.477946,1.42369 0.416342,0.40152 0.856199,0.77889 1.269173,1.18391 0.220178,0.21591 0.393912,0.40543 0.604097,0.62941 0.146486,0.15148 0.290662,0.30473 0.433049,0.45992 l -2.717664,-4.11189 c -0.102783,-0.0899 -0.20518,-0.1807 -0.306958,-0.27182 -0.572839,-0.5092 -1.155373,-1.00736 -1.708423,-1.5384 -0.320557,-0.28767 -0.650582,-0.5628 -0.98702,-0.83096 z"
       clip-path="url(#clipPath1117-6)"
       transform="matrix(-1,0,0,1,223.67414,28.55092)" />
    <use
       x="0"
       y="0"
       xlink:href="#rect171"
       id="use1121" />
    <use
       x="0"
       y="0"
       xlink:href="#path233"
       id="use1123" />
    <path
       id="rect171-8"
       style="fill:#ffffff;stroke-width:0.264583"
       d="m 79.018949,69.657247 c -4.762285,0 -8.596374,3.834089 -8.596374,8.596374 V 113.4954 c 0,4.76228 3.834089,8.59586 8.596374,8.59586 h 41.365431 c 4.76229,0 8.59638,-3.83358 8.59638,-8.59586 V 78.253621 c 0,-4.762285 -3.83409,-8.596374 -8.59638,-8.596374 z"
       clip-path="url(#clipPath717-6)"
       transform="matrix(-1,0,0,1,157.87057,28.914476)" />
    <path
       id="path233-8"
       style="fill:#ffffff;stroke-width:0.264583"
       d="m 70.429293,110.5085 c 0.338832,19.41048 0.677353,38.821 7.139616,48.59858 6.462256,9.77758 19.047811,9.92291 31.632691,10.06812 L 91.161877,141.87971 c -0.117284,-0.0277 -0.246482,-0.1071 -0.369486,-0.25373 -0.285444,-0.34027 -0.580749,-0.6732 -0.843876,-1.03146 -0.445875,-0.57887 -0.889889,-1.15925 -1.314649,-1.7539 -0.421174,-0.57678 -0.814968,-1.17438 -1.264522,-1.72961 -0.52081,-0.62659 -1.053275,-1.24406 -1.620056,-1.82986 -0.187021,-0.19947 -0.374764,-0.40375 -0.569991,-0.59531 -0.412509,-0.40475 -0.852244,-0.78113 -1.26814,-1.18236 -0.503627,-0.47265 -1.018961,-0.93288 -1.491898,-1.43712 -0.144152,-0.14202 -0.285301,-0.28664 -0.425814,-0.43202 0.02591,0.034 0.05187,0.068 0.07803,0.10181 0.05423,0.0699 0.108551,0.1399 0.162781,0.2098 0.474029,0.61106 -0.142988,1.08957 -0.617017,0.47853 -0.05441,-0.0701 -0.108887,-0.14023 -0.163297,-0.21033 -0.304249,-0.39339 -0.593635,-0.79722 -0.879533,-1.20406 -0.184649,-0.31339 -0.371977,-0.62538 -0.543636,-0.94619 -0.162905,-0.3221 -0.307551,-0.65536 -0.51108,-0.95498 -0.325005,-0.42342 -0.640609,-0.8527 -0.914156,-1.31207 -0.325584,-0.48496 -0.628647,-0.98256 -0.937411,-1.47795 -0.319629,-0.42173 -0.681565,-0.81395 -0.945162,-1.27589 -0.229288,-0.39761 -0.433824,-0.80768 -0.593245,-1.23816 -0.194869,-0.22295 -0.390335,-0.44566 -0.609782,-0.64441 -0.293361,-0.26569 -0.318064,-0.55412 -0.19327,-0.70538 0.03438,-0.179 0.234386,-0.33726 0.593763,-0.3173 0.161424,0.009 0.07697,0.004 0.253731,0.0124 0.313408,0.0102 0.625149,-0.008 0.937927,-0.0284 0.220048,-0.011 0.440259,-0.0169 0.660425,-0.0181 0.06254,-0.0276 0.136848,-0.0451 0.224792,-0.046 0.02097,-2.1e-4 0.04277,3.2e-4 0.06511,0.002 z m 7.140132,12.37857 c -0.139331,0.003 -0.27877,0.007 -0.418062,0.0145 -0.1467,0.0105 -0.293222,0.0184 -0.439766,0.0243 0.289682,0.25631 0.569829,0.52335 0.855245,0.78445 0.417555,0.39608 0.86528,0.76154 1.32705,1.10484 0.110975,0.09 0.224946,0.17561 0.340548,0.2589 -0.02712,-0.35454 0.150417,-0.55691 0.346232,-0.56172 0.0387,-9.5e-4 0.07781,0.006 0.116272,0.0202 l -0.942578,-1.42627 c -0.06008,0.008 -0.126723,0.0108 -0.199471,0.006 -0.169817,-0.0118 -0.339525,-0.0204 -0.50953,-0.0284 -0.233438,-0.0116 -0.388556,-0.0923 -0.47594,-0.19637 z m 2.437578,2.11409 c 4.13e-4,0.002 0.0011,0.004 0.0016,0.007 0.03866,0.21876 0.07841,0.43704 0.119889,0.65526 0.02539,0.0159 0.05057,0.0321 0.07596,0.0481 0.175458,0.10658 0.341122,0.22632 0.503845,0.35036 z m 0.473356,1.87223 c 0.01071,0.0255 0.02268,0.0505 0.03359,0.076 0.268162,0.24589 0.532984,0.49557 0.805118,0.7369 0.346699,0.26827 0.684184,0.54645 1.013892,0.83458 l -0.344165,-0.5209 c -0.396527,-0.29034 -0.793541,-0.58014 -1.185974,-0.87592 -0.108616,-0.0821 -0.215444,-0.16635 -0.322461,-0.25063 z m -0.820105,0.3576 c 0.171056,0.29454 0.344553,0.58775 0.523999,0.87747 -0.0167,-0.0341 -0.03342,-0.0682 -0.05013,-0.10232 -0.09068,-0.19657 -0.182124,-0.39401 -0.270785,-0.59273 -0.06737,-0.0612 -0.135021,-0.12202 -0.203088,-0.18242 z m 1.371492,1.22267 c -0.08724,0.22464 -0.351047,0.28586 -0.576192,0.0827 0.173873,0.27398 0.348946,0.54699 0.544153,0.80667 0.305853,0.36392 0.640985,0.70152 0.945162,1.06712 0.313595,0.39185 0.665659,0.74802 1.022677,1.09967 0.468485,0.49977 0.978855,0.95542 1.477946,1.42369 0.416342,0.40152 0.856199,0.77889 1.269173,1.18391 0.220178,0.21591 0.393912,0.40543 0.604097,0.62941 0.146486,0.15148 0.290662,0.30473 0.433049,0.45992 l -2.717664,-4.11189 c -0.102783,-0.0899 -0.20518,-0.1807 -0.306958,-0.27182 -0.572839,-0.5092 -1.155373,-1.00736 -1.708423,-1.5384 -0.320557,-0.28767 -0.650582,-0.5628 -0.98702,-0.83096 z"
       clip-path="url(#clipPath1117-0)"
       transform="matrix(-1,0,0,1,157.87057,28.914476)" />
    <use
       x="0"
       y="0"
       xlink:href="#rect171-8"
       id="use1121-6" />
    <use
       x="0"
       y="0"
       xlink:href="#path233-8"
       id="use1123-1" />
  </g>
</svg>
